<?xml version="1.0" encoding="UTF-8" standalone="no"?>
<svg xmlns="http://www.w3.org/2000/svg" viewBox="0 0 3833.3 1280" width="600" height="200">
 <path stroke="#666" stroke-width="20" stroke-miterlimit="10" d="m171 918c338.6 20.6 394.1-148.4 396-340 1-102.2-37.8-231.2-82.7-234-53.4-3.3-98.9 126.9-97.3 234 2.5 167.6 64.4 334.1 207 333 251.6-1.9 245.3-422.3 214.3-513-25-73-76-70-108-18-27.9 45.3-30.8 92.6-36 216-6.8 160.7 16.3 199.1 40.3 239.9 11.3 19.2 36.6 52.7 75.7 67.1 76 28 226-41 154-199-32-70.2-103.2-73.6-108-81-3.2-4.9 79.6 29.7 334.7 124" fill="none"/>
 <path fill="#666" d="m639.7 112.2c290.2 0 525.5 235.3 525.5 525.5s-235.3 525.5-525.5 525.5-525.4-235.3-525.4-525.5 235.2-525.5 525.4-525.5m0-34c-75.5 0-148.8 14.8-217.8 44-33.2 14-65.1 31.4-95 51.6-29.6 20-57.5 43-82.8 68.3s-48.3 53.2-68.3 82.8c-20.2 29.9-37.6 61.9-51.6 95-29.2 69-44 142.3-44 217.8s14.8 148.8 44 217.8c14 33.2 31.4 65.1 51.6 95 20 29.6 43 57.5 68.3 82.8s53.2 48.3 82.8 68.3c29.9 20.2 61.9 37.6 95 51.6 69 29.2 142.3 44 217.8 44s148.8-14.8 217.8-44c33.2-14 65.1-31.4 95-51.6 29.6-20 57.5-43 82.8-68.3s48.3-53.2 68.3-82.8c20.2-29.9 37.6-61.9 51.6-95 29.2-69 44-142.3 44-217.8s-14.8-148.8-44-217.8c-14-33.2-31.4-65.1-51.6-95-20-29.6-43-57.5-68.3-82.8s-53.2-48.3-82.8-68.3c-29.9-20.2-61.9-37.6-95-51.6-69-29.2-142.2-44-217.8-44zm711.4 320h40.8v367.2c0 11.6 3.2 20.7 9.6 27.3s15.4 9.9 27 9.9c4.4 0 9.6-0.6 15.6-1.8s11.6-2.8 16.8-4.8l7.2 33c-7.6 3.2-16.9 5.8-27.9 7.8s-20.5 3-28.5 3c-18.8 0-33.6-5.3-44.4-15.9s-16.2-25.5-16.2-44.7v-381zm161.4 60v-60h40.8v60h-40.8zm0 378v-312.6h40.8v312.6h-40.8zm256.2 4.2c-21.6 0-41.3-4.5-59.1-13.5s-33.2-20.9-46.2-35.7-23.1-31.8-30.3-51-10.8-39-10.8-59.4c0-21.6 3.5-42.3 10.5-62.1s16.9-37.1 29.7-51.9 28.1-26.6 45.9-35.4 37.5-13.2 59.1-13.2c26.8 0 50 6.7 69.6 20.1s36.4 30.3 50.4 50.7v-65.4h36.6v313.8c0 21.6-4.1 40.7-12.3 57.3s-19.2 30.5-33 41.7-30 19.6-48.6 25.2-38.3 8.4-59.1 8.4c-36 0-65-6.4-87-19.2s-39.8-30-53.4-51.6l25.2-19.8c12.4 20 28.8 34.7 49.2 44.1s42.4 14.1 66 14.1c15.2 0 29.6-2.1 43.2-6.3s25.5-10.4 35.7-18.6 18.3-18.6 24.3-31.2 9-27.3 9-44.1v-61.8c-12 20-28.4 35.8-49.2 47.4s-42.6 17.4-65.4 17.4zm11.4-34.2c12 0 23.8-2.2 35.4-6.6s22.1-10.3 31.5-17.7 17.3-15.7 23.7-24.9 10.6-18.6 12.6-28.2v-96.6c-4.4-11.2-10.4-21.6-18-31.2s-16.2-17.8-25.8-24.6-19.9-12.2-30.9-16.2-22.1-6-33.3-6c-17.6 0-33.3 3.7-47.1 11.1s-25.5 17.1-35.1 29.1-16.9 25.6-21.9 40.8-7.5 30.6-7.5 46.2c0 16.8 3 32.8 9 48s14.3 28.5 24.9 39.9 22.9 20.4 36.9 27 29.2 9.9 45.6 9.9zm496.8 30h-40.8v-174.6c0-35.6-6.1-62.2-18.3-79.8s-30.1-26.4-53.7-26.4c-11.6 0-23.1 2.3-34.5 6.9s-22.1 10.9-32.1 18.9-18.7 17.4-26.1 28.2-12.9 22.6-16.5 35.4v191.4h-40.8v-438h40.8v196.2c12.4-23.6 29.6-42.2 51.6-55.8s45.8-20.4 71.4-20.4c18 0 33.2 3.3 45.6 9.9s22.6 15.8 30.6 27.6 13.8 26 17.4 42.6c3.6 16.6 5.4 34.9 5.4 54.9v183zm234-15c-2.4 1.2-5.9 2.8-10.5 4.8s-9.9 4-15.9 6-12.8 3.8-20.4 5.4c-7.6 1.6-15.6 2.4-24 2.4-8.8 0-17.2-1.2-25.2-3.6s-15-6.1-21-11.1-10.8-11.3-14.4-18.9c-3.6-7.6-5.4-16.4-5.4-26.4v-223.8h-43.2v-32.4h43.2v-105.6h40.8v105.6h72v32.4h-72v212.4c0.8 11.6 4.9 20.1 12.3 25.5s15.9 8.1 25.5 8.1c11.6 0 21.8-1.9 30.6-5.7s14.4-6.5 16.8-8.1l10.8 33zm204 21c-24.8 0-47.5-6.2-68.1-18.6s-36.7-28.4-48.3-48v60.6h-36.6v-438h40.8v190.8c14-21.2 30.8-38.3 50.4-51.3s42.4-19.5 68.4-19.5c22 0 41.7 4.6 59.1 13.8s32.2 21.5 44.4 36.9 21.6 32.8 28.2 52.2 9.9 39.3 9.9 59.7c0 22-3.8 42.8-11.4 62.4s-18 36.7-31.2 51.3-28.9 26.2-47.1 34.8-37.7 12.9-58.5 12.9zm-9.6-36c17.2 0 32.9-3.5 47.1-10.5s26.4-16.4 36.6-28.2 18.2-25.2 24-40.2 8.7-30.5 8.7-46.5c0-16.4-2.7-32.2-8.1-47.4s-13-28.7-22.8-40.5-21.6-21.2-35.4-28.2c-13.8-7-28.9-10.5-45.3-10.5-12.4 0-24 2.1-34.8 6.3s-20.8 9.9-30 17.1-17.4 15.5-24.6 24.9-13.2 19.3-18 29.7v97.2c1.6 10.8 5.9 20.9 12.9 30.3s15.4 17.5 25.2 24.3 20.4 12.2 31.8 16.2 22.3 6 32.7 6zm228.6-408h40.8v367.2c0 11.6 3.2 20.7 9.6 27.3s15.4 9.9 27 9.9c4.4 0 9.6-0.6 15.6-1.8s11.6-2.8 16.8-4.8l7.2 33c-7.6 3.2-16.9 5.8-27.9 7.8s-20.5 3-28.5 3c-18.8 0-33.6-5.3-44.4-15.9s-16.2-25.5-16.2-44.7v-381zm294.5 444c-22.8 0-43.6-4.3-62.4-12.9s-35.1-20.3-48.9-35.1-24.5-32-32.1-51.6-11.4-40.2-11.4-61.8c0-22 3.9-42.8 11.7-62.4s18.6-36.8 32.4-51.6 30.1-26.6 48.9-35.4 39.4-13.2 61.8-13.2 43.1 4.4 62.1 13.2c19 8.8 35.4 20.6 49.2 35.4s24.6 32 32.4 51.6 11.7 40.4 11.7 62.4c0 21.6-3.8 42.2-11.4 61.8s-18.3 36.8-32.1 51.6-30.2 26.5-49.2 35.1-39.9 12.9-62.7 12.9zm-113.4-160.8c0 17.6 3 33.9 9 48.9s14.1 28.2 24.3 39.6c10.2 11.4 22.2 20.3 36 26.7s28.5 9.6 44.1 9.6 30.3-3.3 44.1-9.9 25.9-15.6 36.3-27 18.6-24.7 24.6-39.9 9-31.6 9-49.2c0-17.2-3-33.5-9-48.9s-14.2-28.8-24.6-40.2-22.5-20.4-36.3-27-28.5-9.9-44.1-9.9c-15.6 0-30.2 3.3-43.8 9.9s-25.6 15.7-36 27.3-18.6 25.1-24.6 40.5-9 31.9-9 49.5zm462.6 159c-21.6 0-41.3-4.5-59.1-13.5s-33.2-20.9-46.2-35.7-23.1-31.8-30.3-51-10.8-39-10.8-59.4c0-21.6 3.5-42.3 10.5-62.1s16.9-37.1 29.7-51.9 28.1-26.6 45.9-35.4 37.5-13.2 59.1-13.2c26.8 0 50 6.7 69.6 20.1s36.4 30.3 50.4 50.7v-65.4h36.6v313.8c0 21.6-4.1 40.7-12.3 57.3s-19.2 30.5-33 41.7-30 19.6-48.6 25.2-38.3 8.4-59.1 8.4c-36 0-65-6.4-87-19.2s-39.8-30-53.4-51.6l25.2-19.8c12.4 20 28.8 34.7 49.2 44.1s42.4 14.1 66 14.1c15.2 0 29.6-2.1 43.2-6.3s25.5-10.4 35.7-18.6 18.3-18.6 24.3-31.2 9-27.3 9-44.1v-61.8c-12 20-28.4 35.8-49.2 47.4s-42.6 17.4-65.4 17.4zm11.4-34.2c12 0 23.8-2.2 35.4-6.6s22.1-10.3 31.5-17.7 17.3-15.7 23.7-24.9 10.6-18.6 12.6-28.2v-96.6c-4.4-11.2-10.4-21.6-18-31.2s-16.2-17.8-25.8-24.6-19.9-12.2-30.9-16.2-22.1-6-33.3-6c-17.6 0-33.3 3.7-47.1 11.1s-25.5 17.1-35.1 29.1-16.9 25.6-21.9 40.8-7.5 30.6-7.5 46.2c0 16.8 3 32.8 9 48s14.3 28.5 24.9 39.9 22.9 20.4 36.9 27 29.2 9.9 45.6 9.9z"/>
</svg>
